M48
METRIC,LZ,000.000
;FILE_FORMAT=3:3
;TYPE=PLATED
;Layer: PTH_Through
;EasyEDA v6.5.44, 2024-08-02 20:28:38
;0ec6a3b83b7b46f2a54e004fb1c0c9c6,2d99afecd3cb4a319326ca3d9e85512b,10
;Gerber Generator version 0.2
;Holesize 1 = 0.310 mm
T01C0.310
;Holesize 2 = 0.751 mm
T02C0.751
;Holesize 3 = 0.850 mm
T03C0.850
;Holesize 4 = 0.915 mm
T04C0.915
;Holesize 5 = 1.200 mm
T05C1.200
;Holesize 6 = 1.501 mm
T06C1.501
;Holesize 7 = 1.600 mm
T07C1.600
;Holesize 8 = 1.701 mm
T08C1.701
%
G05
G90
T01
X036576Y071105
T02
X030734Y072135
X030734Y074675
X030734Y077215
X056262Y090043
X053722Y090043
X051182Y090043
T03
X010160Y067180G85X010160Y067186
X022860Y082426G85X022860Y082420
X020320Y082426G85X020320Y082420
X017780Y082426G85X017780Y082420
X015240Y082426G85X015240Y082420
X012700Y082426G85X012700Y082420
X010160Y082426G85X010160Y082420
X025400Y082426G85X025400Y082420
X012700Y067180G85X012700Y067186
X015240Y067180G85X015240Y067186
X017780Y067180G85X017780Y067186
X020320Y067180G85X020320Y067186
X022860Y067180G85X022860Y067186
X025400Y067180G85X025400Y067186
T04
X016002Y070993
X017907Y070993
T05
X010143Y058039
X055643Y058039
X014442Y090043
X009942Y090043
T06
X008692Y087503
X015692Y087503
T07
X031704Y090081
X045004Y090081
T08
X033554Y080861
X038354Y080861
X043154Y080861
M30
