G04 Layer: TopSilkscreenLayer*
G04 EasyEDA v6.5.44, 2024-08-02 20:28:38*
G04 0ec6a3b83b7b46f2a54e004fb1c0c9c6,2d99afecd3cb4a319326ca3d9e85512b,10*
G04 Gerber Generator version 0.2*
G04 Scale: 100 percent, Rotated: No, Reflected: No *
G04 Dimensions in millimeters *
G04 leading zeros omitted , absolute positions ,4 integer and 5 decimal *
%FSLAX45Y45*%
%MOMM*%

%ADD10C,0.2032*%
%ADD11C,0.1524*%
%ADD12C,0.1219*%
%ADD13C,0.1500*%
%ADD14C,0.2540*%
%ADD15C,0.1270*%
%ADD16C,0.5000*%
%ADD17C,0.0174*%

%LPD*%
D10*
X3295650Y7275829D02*
G01*
X3277108Y7266686D01*
X3258565Y7248144D01*
X3249422Y7229855D01*
X3249422Y7192771D01*
X3258565Y7174229D01*
X3277108Y7155942D01*
X3295650Y7146544D01*
X3323336Y7137400D01*
X3369309Y7137400D01*
X3397250Y7146544D01*
X3415538Y7155942D01*
X3434079Y7174229D01*
X3443224Y7192771D01*
X3443224Y7229855D01*
X3434079Y7248144D01*
X3415538Y7266686D01*
X3397250Y7275829D01*
X3369309Y7275829D01*
X3369309Y7229855D02*
G01*
X3369309Y7275829D01*
X3249422Y7391400D02*
G01*
X3443224Y7465313D01*
X3249422Y7539228D02*
G01*
X3443224Y7465313D01*
X3249422Y7645400D02*
G01*
X3443224Y7645400D01*
X3249422Y7645400D02*
G01*
X3249422Y7710170D01*
X3258565Y7737855D01*
X3277108Y7756144D01*
X3295650Y7765542D01*
X3323336Y7774686D01*
X3369309Y7774686D01*
X3397250Y7765542D01*
X3415538Y7756144D01*
X3434079Y7737855D01*
X3443224Y7710170D01*
X3443224Y7645400D01*
D11*
X3899915Y7366000D02*
G01*
X3821938Y7366000D01*
X3806443Y7360920D01*
X3796029Y7350505D01*
X3790950Y7334758D01*
X3790950Y7324344D01*
X3796029Y7308850D01*
X3806443Y7298436D01*
X3821938Y7293355D01*
X3899915Y7293355D01*
X3899915Y7196581D02*
G01*
X3899915Y7248652D01*
X3853179Y7253731D01*
X3858259Y7248652D01*
X3863593Y7232904D01*
X3863593Y7217410D01*
X3858259Y7201915D01*
X3848100Y7191502D01*
X3832352Y7186168D01*
X3821938Y7186168D01*
X3806443Y7191502D01*
X3796029Y7201915D01*
X3790950Y7217410D01*
X3790950Y7232904D01*
X3796029Y7248652D01*
X3801109Y7253731D01*
X3811524Y7259065D01*
X3415284Y6832600D02*
G01*
X3493261Y6832600D01*
X3508756Y6837679D01*
X3519170Y6848094D01*
X3524250Y6863842D01*
X3524250Y6874255D01*
X3519170Y6889750D01*
X3508756Y6900163D01*
X3493261Y6905244D01*
X3415284Y6905244D01*
X3430777Y7002018D02*
G01*
X3420363Y6996684D01*
X3415284Y6981189D01*
X3415284Y6970776D01*
X3420363Y6955281D01*
X3436111Y6944868D01*
X3462020Y6939534D01*
X3487927Y6939534D01*
X3508756Y6944868D01*
X3519170Y6955281D01*
X3524250Y6970776D01*
X3524250Y6976110D01*
X3519170Y6991604D01*
X3508756Y7002018D01*
X3493261Y7007097D01*
X3487927Y7007097D01*
X3472434Y7002018D01*
X3462020Y6991604D01*
X3456940Y6976110D01*
X3456940Y6970776D01*
X3462020Y6955281D01*
X3472434Y6944868D01*
X3487927Y6939534D01*
X3885232Y9711926D02*
G01*
X3874818Y9722340D01*
X3859324Y9727420D01*
X3838496Y9727420D01*
X3823002Y9722340D01*
X3812588Y9711926D01*
X3812588Y9701512D01*
X3817668Y9691098D01*
X3823002Y9685764D01*
X3833416Y9680684D01*
X3864658Y9670270D01*
X3874818Y9665190D01*
X3880152Y9659856D01*
X3885232Y9649442D01*
X3885232Y9633948D01*
X3874818Y9623534D01*
X3859324Y9618454D01*
X3838496Y9618454D01*
X3823002Y9623534D01*
X3812588Y9633948D01*
X3919522Y9727420D02*
G01*
X3945684Y9618454D01*
X3971592Y9727420D02*
G01*
X3945684Y9618454D01*
X3971592Y9727420D02*
G01*
X3997500Y9618454D01*
X4023408Y9727420D02*
G01*
X3997500Y9618454D01*
X4057698Y9706592D02*
G01*
X4068112Y9711926D01*
X4083860Y9727420D01*
X4083860Y9618454D01*
D12*
X989584Y7327900D02*
G01*
X1058926Y7327900D01*
X1072895Y7332471D01*
X1082039Y7341870D01*
X1086612Y7355586D01*
X1086612Y7364729D01*
X1082039Y7378700D01*
X1072895Y7387844D01*
X1058926Y7392670D01*
X989584Y7392670D01*
X1003554Y7487665D02*
G01*
X994410Y7478521D01*
X989584Y7464552D01*
X989584Y7446010D01*
X994410Y7432294D01*
X1003554Y7423150D01*
X1012697Y7423150D01*
X1022095Y7427721D01*
X1026668Y7432294D01*
X1031239Y7441437D01*
X1040384Y7469123D01*
X1045210Y7478521D01*
X1049781Y7483094D01*
X1058926Y7487665D01*
X1072895Y7487665D01*
X1082039Y7478521D01*
X1086612Y7464552D01*
X1086612Y7446010D01*
X1082039Y7432294D01*
X1072895Y7423150D01*
X989584Y7518145D02*
G01*
X1086612Y7518145D01*
X989584Y7518145D02*
G01*
X989584Y7559802D01*
X994410Y7573518D01*
X998981Y7578089D01*
X1008126Y7582915D01*
X1017270Y7582915D01*
X1026668Y7578089D01*
X1031239Y7573518D01*
X1035812Y7559802D01*
X1035812Y7518145D02*
G01*
X1035812Y7559802D01*
X1040384Y7573518D01*
X1045210Y7578089D01*
X1054354Y7582915D01*
X1068070Y7582915D01*
X1077468Y7578089D01*
X1082039Y7573518D01*
X1086612Y7559802D01*
X1086612Y7518145D01*
D13*
X1993468Y6230203D02*
G01*
X1984324Y6221059D01*
X1980006Y6207343D01*
X1980006Y6189309D01*
X1984324Y6175593D01*
X1993468Y6166449D01*
X2002612Y6166449D01*
X2011756Y6171021D01*
X2016328Y6175593D01*
X2020900Y6184737D01*
X2029790Y6211915D01*
X2034362Y6221059D01*
X2038934Y6225631D01*
X2048078Y6230203D01*
X2061794Y6230203D01*
X2070684Y6221059D01*
X2075256Y6207343D01*
X2075256Y6189309D01*
X2070684Y6175593D01*
X2061794Y6166449D01*
X1980006Y6260175D02*
G01*
X2075256Y6260175D01*
X1980006Y6260175D02*
G01*
X1980006Y6291925D01*
X1984324Y6305641D01*
X1993468Y6314785D01*
X2002612Y6319103D01*
X2016328Y6323675D01*
X2038934Y6323675D01*
X2052650Y6319103D01*
X2061794Y6314785D01*
X2070684Y6305641D01*
X2075256Y6291925D01*
X2075256Y6260175D01*
X1980006Y6390223D02*
G01*
X2075256Y6353647D01*
X1980006Y6390223D02*
G01*
X2075256Y6426545D01*
X2043506Y6367363D02*
G01*
X2043506Y6412829D01*
X2233564Y6250015D02*
G01*
X2224420Y6241125D01*
X2219848Y6227409D01*
X2219848Y6209121D01*
X2224420Y6195659D01*
X2233564Y6186515D01*
X2242708Y6186515D01*
X2251598Y6191087D01*
X2256170Y6195659D01*
X2260742Y6204549D01*
X2269886Y6231981D01*
X2274458Y6241125D01*
X2279030Y6245697D01*
X2288174Y6250015D01*
X2301636Y6250015D01*
X2310780Y6241125D01*
X2315352Y6227409D01*
X2315352Y6209121D01*
X2310780Y6195659D01*
X2301636Y6186515D01*
X2242708Y6348313D02*
G01*
X2233564Y6343741D01*
X2224420Y6334597D01*
X2219848Y6325707D01*
X2219848Y6307419D01*
X2224420Y6298275D01*
X2233564Y6289131D01*
X2242708Y6284559D01*
X2256170Y6280241D01*
X2279030Y6280241D01*
X2292746Y6284559D01*
X2301636Y6289131D01*
X2310780Y6298275D01*
X2315352Y6307419D01*
X2315352Y6325707D01*
X2310780Y6334597D01*
X2301636Y6343741D01*
X2292746Y6348313D01*
X2219848Y6378285D02*
G01*
X2315352Y6378285D01*
X2315352Y6378285D02*
G01*
X2315352Y6432895D01*
X2489893Y6292910D02*
G01*
X2585349Y6292910D01*
X2489893Y6261092D02*
G01*
X2489893Y6324729D01*
X2489893Y6354729D02*
G01*
X2585349Y6418364D01*
X2489893Y6418364D02*
G01*
X2585349Y6354729D01*
X1709910Y6276449D02*
G01*
X1805414Y6276449D01*
X1709910Y6276449D02*
G01*
X1709910Y6308199D01*
X1714482Y6321915D01*
X1723626Y6331059D01*
X1732516Y6335631D01*
X1746232Y6340203D01*
X1769092Y6340203D01*
X1782554Y6335631D01*
X1791698Y6331059D01*
X1800842Y6321915D01*
X1805414Y6308199D01*
X1805414Y6276449D01*
X1709910Y6379319D02*
G01*
X1709910Y6429103D01*
X1746232Y6401925D01*
X1746232Y6415641D01*
X1750804Y6424785D01*
X1755376Y6429103D01*
X1769092Y6433675D01*
X1777982Y6433675D01*
X1791698Y6429103D01*
X1800842Y6420213D01*
X1805414Y6406497D01*
X1805414Y6392781D01*
X1800842Y6379319D01*
X1796270Y6374747D01*
X1787126Y6370175D01*
X1469895Y6276492D02*
G01*
X1565351Y6276492D01*
X1469895Y6276492D02*
G01*
X1469895Y6308310D01*
X1474442Y6321945D01*
X1483532Y6331038D01*
X1492623Y6335582D01*
X1506258Y6340129D01*
X1528986Y6340129D01*
X1542623Y6335582D01*
X1551713Y6331038D01*
X1560804Y6321945D01*
X1565351Y6308310D01*
X1565351Y6276492D01*
X1492623Y6374673D02*
G01*
X1488076Y6374673D01*
X1478986Y6379220D01*
X1474442Y6383764D01*
X1469895Y6392854D01*
X1469895Y6411038D01*
X1474442Y6420129D01*
X1478986Y6424673D01*
X1488076Y6429220D01*
X1497167Y6429220D01*
X1506258Y6424673D01*
X1519895Y6415582D01*
X1565351Y6370129D01*
X1565351Y6433764D01*
X959896Y6276492D02*
G01*
X1055352Y6276492D01*
X959896Y6276492D02*
G01*
X959896Y6308310D01*
X964443Y6321945D01*
X973533Y6331038D01*
X982624Y6335582D01*
X996259Y6340129D01*
X1018987Y6340129D01*
X1032624Y6335582D01*
X1041714Y6331038D01*
X1050805Y6321945D01*
X1055352Y6308310D01*
X1055352Y6276492D01*
X959896Y6397401D02*
G01*
X964443Y6383764D01*
X978077Y6374673D01*
X1000805Y6370129D01*
X1014442Y6370129D01*
X1037168Y6374673D01*
X1050805Y6383764D01*
X1055352Y6397401D01*
X1055352Y6406492D01*
X1050805Y6420129D01*
X1037168Y6429220D01*
X1014442Y6433764D01*
X1000805Y6433764D01*
X978077Y6429220D01*
X964443Y6420129D01*
X959896Y6406492D01*
X959896Y6397401D01*
X1209916Y6276573D02*
G01*
X1305420Y6276573D01*
X1209916Y6276573D02*
G01*
X1209916Y6308323D01*
X1214488Y6322039D01*
X1223632Y6330929D01*
X1232522Y6335501D01*
X1246238Y6340073D01*
X1269098Y6340073D01*
X1282560Y6335501D01*
X1291704Y6330929D01*
X1300848Y6322039D01*
X1305420Y6308323D01*
X1305420Y6276573D01*
X1228204Y6370045D02*
G01*
X1223632Y6379189D01*
X1209916Y6392905D01*
X1305420Y6392905D01*
X1981961Y8521700D02*
G01*
X2077465Y8521700D01*
X1981961Y8521700D02*
G01*
X2077465Y8558021D01*
X1981961Y8594344D02*
G01*
X2077465Y8558021D01*
X1981961Y8594344D02*
G01*
X2077465Y8594344D01*
X1981961Y8624315D02*
G01*
X2077465Y8624315D01*
X1995424Y8718042D02*
G01*
X1986534Y8708897D01*
X1981961Y8695436D01*
X1981961Y8677147D01*
X1986534Y8663431D01*
X1995424Y8654542D01*
X2004568Y8654542D01*
X2013711Y8658860D01*
X2018284Y8663431D01*
X2022856Y8672576D01*
X2032000Y8700008D01*
X2036318Y8708897D01*
X2040890Y8713470D01*
X2050034Y8718042D01*
X2063750Y8718042D01*
X2072893Y8708897D01*
X2077465Y8695436D01*
X2077465Y8677147D01*
X2072893Y8663431D01*
X2063750Y8654542D01*
X1981961Y8775445D02*
G01*
X1986534Y8766302D01*
X1995424Y8757158D01*
X2004568Y8752586D01*
X2018284Y8748013D01*
X2040890Y8748013D01*
X2054606Y8752586D01*
X2063750Y8757158D01*
X2072893Y8766302D01*
X2077465Y8775445D01*
X2077465Y8793479D01*
X2072893Y8802624D01*
X2063750Y8811768D01*
X2054606Y8816339D01*
X2040890Y8820912D01*
X2018284Y8820912D01*
X2004568Y8816339D01*
X1995424Y8811768D01*
X1986534Y8802624D01*
X1981961Y8793479D01*
X1981961Y8775445D01*
X2249424Y8585454D02*
G01*
X2240534Y8576310D01*
X2235961Y8562594D01*
X2235961Y8544305D01*
X2240534Y8530844D01*
X2249424Y8521700D01*
X2258568Y8521700D01*
X2267711Y8526271D01*
X2272284Y8530844D01*
X2276856Y8539987D01*
X2286000Y8567165D01*
X2290318Y8576310D01*
X2294890Y8580881D01*
X2304034Y8585454D01*
X2317750Y8585454D01*
X2326893Y8576310D01*
X2331465Y8562594D01*
X2331465Y8544305D01*
X2326893Y8530844D01*
X2317750Y8521700D01*
X2258568Y8683497D02*
G01*
X2249424Y8678926D01*
X2240534Y8669781D01*
X2235961Y8660892D01*
X2235961Y8642604D01*
X2240534Y8633460D01*
X2249424Y8624315D01*
X2258568Y8619997D01*
X2272284Y8615426D01*
X2294890Y8615426D01*
X2308606Y8619997D01*
X2317750Y8624315D01*
X2326893Y8633460D01*
X2331465Y8642604D01*
X2331465Y8660892D01*
X2326893Y8669781D01*
X2317750Y8678926D01*
X2308606Y8683497D01*
X2235961Y8713470D02*
G01*
X2331465Y8713470D01*
X2235961Y8777224D02*
G01*
X2299461Y8713470D01*
X2276856Y8736329D02*
G01*
X2331465Y8777224D01*
X2489961Y8521700D02*
G01*
X2585465Y8521700D01*
X2489961Y8521700D02*
G01*
X2489961Y8562594D01*
X2494534Y8576310D01*
X2499106Y8580881D01*
X2507995Y8585454D01*
X2517140Y8585454D01*
X2526284Y8580881D01*
X2530856Y8576310D01*
X2535427Y8562594D01*
X2535427Y8521700D01*
X2535427Y8553450D02*
G01*
X2585465Y8585454D01*
X2489961Y8615426D02*
G01*
X2585465Y8678926D01*
X2489961Y8678926D02*
G01*
X2585465Y8615426D01*
X1727962Y8521700D02*
G01*
X1823465Y8521700D01*
X1727962Y8521700D02*
G01*
X1823465Y8558021D01*
X1727962Y8594344D02*
G01*
X1823465Y8558021D01*
X1727962Y8594344D02*
G01*
X1823465Y8594344D01*
X1727962Y8651747D02*
G01*
X1732534Y8642604D01*
X1741423Y8633460D01*
X1750568Y8628887D01*
X1764284Y8624315D01*
X1786889Y8624315D01*
X1800605Y8628887D01*
X1809750Y8633460D01*
X1818894Y8642604D01*
X1823465Y8651747D01*
X1823465Y8669781D01*
X1818894Y8678926D01*
X1809750Y8688070D01*
X1800605Y8692642D01*
X1786889Y8697213D01*
X1764284Y8697213D01*
X1750568Y8692642D01*
X1741423Y8688070D01*
X1732534Y8678926D01*
X1727962Y8669781D01*
X1727962Y8651747D01*
X1741423Y8790686D02*
G01*
X1732534Y8781795D01*
X1727962Y8768079D01*
X1727962Y8749792D01*
X1732534Y8736329D01*
X1741423Y8727186D01*
X1750568Y8727186D01*
X1759712Y8731758D01*
X1764284Y8736329D01*
X1768855Y8745220D01*
X1778000Y8772652D01*
X1782318Y8781795D01*
X1786889Y8786368D01*
X1796034Y8790686D01*
X1809750Y8790686D01*
X1818894Y8781795D01*
X1823465Y8768079D01*
X1823465Y8749792D01*
X1818894Y8736329D01*
X1809750Y8727186D01*
X1727962Y8820912D02*
G01*
X1823465Y8820912D01*
X1473962Y8530844D02*
G01*
X1473962Y8580881D01*
X1510284Y8553450D01*
X1510284Y8567165D01*
X1514855Y8576310D01*
X1519428Y8580881D01*
X1532889Y8585454D01*
X1542034Y8585454D01*
X1555750Y8580881D01*
X1564894Y8571737D01*
X1569465Y8558021D01*
X1569465Y8544305D01*
X1564894Y8530844D01*
X1560321Y8526271D01*
X1551178Y8521700D01*
X1473962Y8615426D02*
G01*
X1569465Y8651747D01*
X1473962Y8688070D02*
G01*
X1569465Y8651747D01*
X1473962Y8727186D02*
G01*
X1473962Y8777224D01*
X1510284Y8749792D01*
X1510284Y8763508D01*
X1514855Y8772652D01*
X1519428Y8777224D01*
X1532889Y8781795D01*
X1542034Y8781795D01*
X1555750Y8777224D01*
X1564894Y8768079D01*
X1569465Y8754363D01*
X1569465Y8740902D01*
X1564894Y8727186D01*
X1560321Y8722613D01*
X1551178Y8718042D01*
X965962Y8576310D02*
G01*
X965962Y8530844D01*
X1006855Y8526271D01*
X1002284Y8530844D01*
X997712Y8544305D01*
X997712Y8558021D01*
X1002284Y8571737D01*
X1011428Y8580881D01*
X1024889Y8585454D01*
X1034034Y8585454D01*
X1047750Y8580881D01*
X1056894Y8571737D01*
X1061465Y8558021D01*
X1061465Y8544305D01*
X1056894Y8530844D01*
X1052321Y8526271D01*
X1043178Y8521700D01*
X965962Y8615426D02*
G01*
X1061465Y8651747D01*
X965962Y8688070D02*
G01*
X1061465Y8651747D01*
X1242568Y8589771D02*
G01*
X1233423Y8585454D01*
X1224534Y8576310D01*
X1219962Y8567165D01*
X1219962Y8548878D01*
X1224534Y8539987D01*
X1233423Y8530844D01*
X1242568Y8526271D01*
X1256284Y8521700D01*
X1278889Y8521700D01*
X1292605Y8526271D01*
X1301750Y8530844D01*
X1310894Y8539987D01*
X1315465Y8548878D01*
X1315465Y8567165D01*
X1310894Y8576310D01*
X1301750Y8585454D01*
X1292605Y8589771D01*
X1278889Y8589771D01*
X1278889Y8567165D02*
G01*
X1278889Y8589771D01*
X1219962Y8619997D02*
G01*
X1315465Y8619997D01*
X1219962Y8619997D02*
G01*
X1315465Y8683497D01*
X1219962Y8683497D02*
G01*
X1315465Y8683497D01*
X1219962Y8713470D02*
G01*
X1315465Y8713470D01*
X1219962Y8713470D02*
G01*
X1219962Y8745220D01*
X1224534Y8758936D01*
X1233423Y8768079D01*
X1242568Y8772652D01*
X1256284Y8777224D01*
X1278889Y8777224D01*
X1292605Y8772652D01*
X1301750Y8768079D01*
X1310894Y8758936D01*
X1315465Y8745220D01*
X1315465Y8713470D01*
X1641119Y7562977D02*
G01*
X1564665Y7562977D01*
X1641119Y7562977D02*
G01*
X1641119Y7530464D01*
X1637563Y7519543D01*
X1633753Y7515733D01*
X1626641Y7512177D01*
X1619275Y7512177D01*
X1611909Y7515733D01*
X1608353Y7519543D01*
X1604797Y7530464D01*
X1604797Y7562977D02*
G01*
X1604797Y7530464D01*
X1601241Y7519543D01*
X1597431Y7515733D01*
X1590319Y7512177D01*
X1579397Y7512177D01*
X1572031Y7515733D01*
X1568475Y7519543D01*
X1564665Y7530464D01*
X1564665Y7562977D01*
X1641119Y7459090D02*
G01*
X1564665Y7488301D01*
X1641119Y7459090D02*
G01*
X1564665Y7430135D01*
X1590319Y7477379D02*
G01*
X1590319Y7440803D01*
X1641119Y7380604D02*
G01*
X1564665Y7380604D01*
X1641119Y7406004D02*
G01*
X1641119Y7355204D01*
X1597431Y7331075D02*
G01*
X1597431Y7265543D01*
X1844294Y7562977D02*
G01*
X1767839Y7562977D01*
X1844294Y7562977D02*
G01*
X1844294Y7530464D01*
X1840737Y7519543D01*
X1836928Y7515733D01*
X1829815Y7512177D01*
X1822450Y7512177D01*
X1815337Y7515733D01*
X1811528Y7519543D01*
X1807971Y7530464D01*
X1807971Y7562977D02*
G01*
X1807971Y7530464D01*
X1804415Y7519543D01*
X1800605Y7515733D01*
X1793494Y7512177D01*
X1782571Y7512177D01*
X1775205Y7515733D01*
X1771650Y7519543D01*
X1767839Y7530464D01*
X1767839Y7562977D01*
X1844294Y7459090D02*
G01*
X1767839Y7488301D01*
X1844294Y7459090D02*
G01*
X1767839Y7430135D01*
X1793494Y7477379D02*
G01*
X1793494Y7440803D01*
X1844294Y7380604D02*
G01*
X1767839Y7380604D01*
X1844294Y7406004D02*
G01*
X1844294Y7355204D01*
X1833371Y7298309D02*
G01*
X1767839Y7298309D01*
X1800605Y7331075D02*
G01*
X1800605Y7265543D01*
D11*
X3274501Y6605015D02*
G01*
X3274501Y6527037D01*
X3279581Y6511544D01*
X3289995Y6501129D01*
X3305743Y6496050D01*
X3316157Y6496050D01*
X3331651Y6501129D01*
X3342065Y6511544D01*
X3347145Y6527037D01*
X3347145Y6605015D01*
X3386769Y6579108D02*
G01*
X3386769Y6584187D01*
X3391849Y6594602D01*
X3397183Y6599936D01*
X3407597Y6605015D01*
X3428171Y6605015D01*
X3438585Y6599936D01*
X3443919Y6594602D01*
X3448999Y6584187D01*
X3448999Y6573773D01*
X3443919Y6563360D01*
X3433505Y6547865D01*
X3381435Y6496050D01*
X3454333Y6496050D01*
X2794990Y7461250D02*
G01*
X2872968Y7461250D01*
X2888462Y7466329D01*
X2898876Y7476744D01*
X2903956Y7492492D01*
X2903956Y7502905D01*
X2898876Y7518400D01*
X2888462Y7528813D01*
X2872968Y7533894D01*
X2794990Y7533894D01*
X2794990Y7578597D02*
G01*
X2794990Y7635747D01*
X2836646Y7604760D01*
X2836646Y7620254D01*
X2841726Y7630668D01*
X2846806Y7635747D01*
X2862554Y7641081D01*
X2872968Y7641081D01*
X2888462Y7635747D01*
X2898876Y7625334D01*
X2903956Y7609839D01*
X2903956Y7594345D01*
X2898876Y7578597D01*
X2893796Y7573518D01*
X2883382Y7568184D01*
G36*
X5708497Y8353044D02*
G01*
X5615381Y8255203D01*
X5708497Y8255203D01*
G37*
G36*
X5694730Y8404910D02*
G01*
X5694730Y8384946D01*
X5804712Y8384946D01*
X5804712Y8404910D01*
G37*
G36*
X4930089Y8744000D02*
G01*
X4930089Y8724036D01*
X5040071Y8724036D01*
X5040071Y8744000D01*
G37*
G36*
X4976774Y8786672D02*
G01*
X4976774Y8676690D01*
X4996738Y8676690D01*
X4996738Y8786672D01*
G37*
G36*
X5708497Y7718044D02*
G01*
X5615381Y7620203D01*
X5708497Y7620203D01*
G37*
G36*
X5694730Y7769910D02*
G01*
X5694730Y7749946D01*
X5804712Y7749946D01*
X5804712Y7769910D01*
G37*
G36*
X4930089Y8109000D02*
G01*
X4930089Y8089036D01*
X5040071Y8089036D01*
X5040071Y8109000D01*
G37*
G36*
X4976774Y8151672D02*
G01*
X4976774Y8041690D01*
X4996738Y8041690D01*
X4996738Y8151672D01*
G37*
G36*
X5708497Y7095744D02*
G01*
X5615381Y6997903D01*
X5708497Y6997903D01*
G37*
G36*
X5694730Y7147610D02*
G01*
X5694730Y7127646D01*
X5804712Y7127646D01*
X5804712Y7147610D01*
G37*
G36*
X4930089Y7486700D02*
G01*
X4930089Y7466736D01*
X5040071Y7466736D01*
X5040071Y7486700D01*
G37*
G36*
X4976774Y7529372D02*
G01*
X4976774Y7419390D01*
X4996738Y7419390D01*
X4996738Y7529372D01*
G37*
X3565890Y7318380D02*
G01*
X3565890Y7189886D01*
X3749309Y7189886D01*
X3749309Y7318380D01*
X3565890Y7413619D02*
G01*
X3565890Y7542113D01*
X3749309Y7542113D01*
X3749309Y7413619D01*
X3749309Y6880219D02*
G01*
X3749309Y7008713D01*
X3565890Y7008713D01*
X3565890Y6880219D01*
X3749309Y6784980D02*
G01*
X3749309Y6656486D01*
X3565890Y6656486D01*
X3565890Y6784980D01*
D14*
X5818477Y8433498D02*
G01*
X5738474Y8433498D01*
X5849462Y8544473D02*
G01*
X5849462Y8464476D01*
X5707496Y8544473D02*
G01*
X5707496Y8464476D01*
X5850044Y8602063D02*
G01*
X5850044Y8682062D01*
X5819061Y8713045D02*
G01*
X5739063Y8713045D01*
X5708083Y8602063D02*
G01*
X5708083Y8682062D01*
X5818477Y7811198D02*
G01*
X5738474Y7811198D01*
X5849462Y7922173D02*
G01*
X5849462Y7842176D01*
X5707496Y7922173D02*
G01*
X5707496Y7842176D01*
X5850044Y7979763D02*
G01*
X5850044Y8059762D01*
X5819061Y8090745D02*
G01*
X5739063Y8090745D01*
X5708083Y7979763D02*
G01*
X5708083Y8059762D01*
X5818477Y7239698D02*
G01*
X5738474Y7239698D01*
X5849462Y7350673D02*
G01*
X5849462Y7270676D01*
X5707496Y7350673D02*
G01*
X5707496Y7270676D01*
X5850044Y7408263D02*
G01*
X5850044Y7488262D01*
X5819061Y7519245D02*
G01*
X5739063Y7519245D01*
X5708083Y7408263D02*
G01*
X5708083Y7488262D01*
X5112100Y8802913D02*
G01*
X5112100Y8809799D01*
X5112100Y8482914D02*
G01*
X5112100Y8636685D01*
X5508774Y8319800D02*
G01*
X5235425Y8319800D01*
X5622099Y8636685D02*
G01*
X5622099Y8482914D01*
X5122100Y8809799D02*
G01*
X5622099Y8809799D01*
X5622099Y8802913D01*
X5112100Y8167913D02*
G01*
X5112100Y8174799D01*
X5112100Y7847914D02*
G01*
X5112100Y8001685D01*
X5508774Y7684800D02*
G01*
X5235425Y7684800D01*
X5622099Y8001685D02*
G01*
X5622099Y7847914D01*
X5122100Y8174799D02*
G01*
X5622099Y8174799D01*
X5622099Y8167913D01*
X5112100Y7545613D02*
G01*
X5112100Y7552499D01*
X5112100Y7225614D02*
G01*
X5112100Y7379385D01*
X5508774Y7062500D02*
G01*
X5235425Y7062500D01*
X5622099Y7379385D02*
G01*
X5622099Y7225614D01*
X5122100Y7552499D02*
G01*
X5622099Y7552499D01*
X5622099Y7545613D01*
X3915389Y9574103D02*
G01*
X3515387Y9574103D01*
X3915389Y9574103D02*
G01*
X3915389Y9174109D01*
X3515387Y9574103D02*
G01*
X3515387Y9174109D01*
X4317997Y8236193D02*
G01*
X4317997Y8532604D01*
X3835397Y8236216D02*
G01*
X3835397Y8532604D01*
X3352797Y8236196D02*
G01*
X3352797Y8532604D01*
X4510397Y9168104D02*
G01*
X4510397Y9155879D01*
X3160397Y8860330D02*
G01*
X3160397Y8532604D01*
X4508497Y8532604D01*
X4508497Y8860213D01*
X3160397Y9168104D02*
G01*
X3160397Y9155879D01*
X4510397Y9168104D02*
G01*
X3160397Y9168104D01*
D15*
X889000Y6591300D02*
G01*
X889000Y6845300D01*
X2667000Y6845300D01*
X2667000Y6591300D01*
X889000Y6591300D01*
D14*
X728802Y8166100D02*
G01*
X728802Y6794500D01*
X2838958Y6794500D02*
G01*
X2838958Y8166100D01*
X932002Y6591300D02*
G01*
X2625597Y6591300D01*
X2625597Y8369300D02*
G01*
X932002Y8369300D01*
D15*
X2667000Y8369300D02*
G01*
X2667000Y8115300D01*
X889000Y8115300D01*
X889000Y8369300D01*
X2667000Y8369300D01*
D14*
X1320800Y7023100D02*
G01*
X584200Y7023100D01*
X584200Y7934375D01*
X1320800Y7934375D01*
X1320800Y7023100D01*
D16*
X4813955Y5544573D02*
G01*
X4813955Y6054570D01*
X4559297Y5803900D02*
G01*
X5069293Y5803900D01*
D14*
X812797Y5156200D02*
G01*
X812797Y6451600D01*
X5765797Y6451600D01*
X5765797Y5156200D01*
X812797Y5156200D01*
X2948406Y7067550D02*
G01*
X2948406Y7867548D01*
X3198418Y7867548D01*
X3198418Y7067550D01*
X2948406Y7067550D01*
X5772150Y8879306D02*
G01*
X4972151Y8879306D01*
X4972151Y9129318D01*
X5772150Y9129318D01*
X5772150Y8879306D01*
X1579196Y8604300D02*
G01*
X859200Y8604300D01*
X859294Y9264395D02*
G01*
X1579130Y9264395D01*
X1369212Y9589300D02*
G01*
X1069212Y9589300D01*
X1069212Y9589300D02*
G01*
X1069212Y9264299D01*
X1369212Y9589300D02*
G01*
X1369212Y9264299D01*
X1579196Y8604300D02*
G01*
X1579196Y8617562D01*
X1579196Y8883037D02*
G01*
X1579196Y9264395D01*
X859200Y8604300D02*
G01*
X859200Y8617562D01*
X859200Y8883037D02*
G01*
X859200Y9264395D01*
G75*
G01*
X5819061Y8713051D02*
G02*
X5850044Y8682068I0J-30983D01*
G75*
G01*
X5708078Y8682068D02*
G02*
X5739064Y8713051I30983J0D01*
G75*
G01*
X5849463Y8464481D02*
G02*
X5818477Y8433499I-30983J0D01*
G75*
G01*
X5738480Y8433499D02*
G02*
X5707497Y8464481I0J30982D01*
G75*
G01*
X5819061Y8090751D02*
G02*
X5850044Y8059768I0J-30983D01*
G75*
G01*
X5708078Y8059768D02*
G02*
X5739064Y8090751I30983J0D01*
G75*
G01*
X5849463Y7842181D02*
G02*
X5818477Y7811199I-30983J0D01*
G75*
G01*
X5738480Y7811199D02*
G02*
X5707497Y7842181I0J30982D01*
G75*
G01*
X5819061Y7519251D02*
G02*
X5850044Y7488268I0J-30983D01*
G75*
G01*
X5708078Y7488268D02*
G02*
X5739064Y7519251I30983J0D01*
G75*
G01*
X5849463Y7270681D02*
G02*
X5818477Y7239699I-30983J0D01*
G75*
G01*
X5738480Y7239699D02*
G02*
X5707497Y7270681I0J30982D01*
G75*
G01*
X932002Y8369300D02*
G03*
X728802Y8166100I0J-203200D01*
G75*
G01*
X728802Y6794500D02*
G03*
X932002Y6591300I203200J0D01*
G75*
G01*
X2838958Y8166100D02*
G03*
X2625598Y8369300I-208269J-5069D01*
G75*
G01*
X2625598Y6591300D02*
G03*
X2838958Y6794500I5091J208269D01*
M02*
