M48
INCH,LZ
;FILE_FORMAT=2:4
;TYPE=NON_PLATED
;Layer: NPTH_Through
;EasyEDA v6.5.44, 2024-07-16 23:05:10
;d2859fdac7c24986be9c74e91a94c2b3,2d99afecd3cb4a319326ca3d9e85512b,10
;Gerber Generator version 0.2
;Holesize 1 = 0.0800 inch
T01C0.0800
%
G05
G90
T01
X016400Y035900
X016400Y034900
X016400Y033850
X016400Y030750
X016400Y031800
X016400Y032800
X016400Y027650
X016400Y028700
X016400Y029700
X016400Y024600
X016400Y025650
X016400Y026650
X016450Y023550
X017300Y027450
X018350Y027450
X019400Y027500
X020400Y027500
X015350Y023800
X003550Y023800
X003450Y035650
X015350Y035650
M30
