M48
INCH,LZ
;FILE_FORMAT=2:4
;TYPE=PLATED
;Layer: PTH_Through
;EasyEDA v6.5.44, 2024-07-16 23:05:10
;d2859fdac7c24986be9c74e91a94c2b3,2d99afecd3cb4a319326ca3d9e85512b,10
;Gerber Generator version 0.2
;Holesize 1 = 0.0240 inch
T01C0.0240
;Holesize 2 = 0.0340 inch
T02C0.0340
;Holesize 3 = 0.0360 inch
T03C0.0360
;Holesize 4 = 0.0470 inch
T04C0.0470
;Holesize 5 = 0.0590 inch
T05C0.0590
%
G05
G90
T01
X010195Y024550G85X010667Y024550
X009014Y024550G85X009486Y024550
X007833Y024550G85X008305Y024550
T02
X004300Y027599G85X004300Y027601
X009300Y033601G85X009300Y033599
X008300Y033601G85X008300Y033599
X007300Y033601G85X007300Y033599
X006300Y033601G85X006300Y033599
X005300Y033601G85X005300Y033599
X004300Y033601G85X004300Y033599
X010300Y033601G85X010300Y033599
X005300Y027599G85X005300Y027601
X006300Y027599G85X006300Y027601
X007300Y027599G85X007300Y027601
X008300Y027599G85X008300Y027601
X009300Y027599G85X009300Y027601
X010300Y027599G85X010300Y027601
X006600Y029101G85X006600Y029099
X007343Y029101G85X007343Y029099
T03
X019650Y028450
X013000Y030950
X013000Y027950
X013000Y027000
X013000Y032000
X018750Y028450
X017750Y028450
X013000Y030000
T04
X014136Y035300
X012364Y035300
T05
X011872Y034300
X014628Y034300
M30
