G04 Layer: TopLayer*
G04 EasyEDA v6.5.44, 2024-07-16 23:05:10*
G04 d2859fdac7c24986be9c74e91a94c2b3,2d99afecd3cb4a319326ca3d9e85512b,10*
G04 Gerber Generator version 0.2*
G04 Scale: 100 percent, Rotated: No, Reflected: No *
G04 Dimensions in inches *
G04 leading zeros omitted , absolute positions ,3 integer and 6 decimal *
%FSLAX36Y36*%
%MOIN*%

%ADD10C,0.0100*%
%ADD11C,0.0394*%
%ADD12R,0.0354X0.0315*%
%ADD13R,0.0630X0.0551*%
%ADD14O,0.047244X0.09055099999999999*%
%ADD15R,0.0984X0.0472*%
%ADD16O,0.098425X0.047244*%
%ADD17C,0.0709*%
%ADD18C,0.0866*%
%ADD19C,0.0591*%
%ADD20C,0.0600*%

%LPD*%
D10*
X660000Y2910000D02*
G01*
X395000Y2910000D01*
X350000Y2865000D01*
X350000Y2570000D01*
X465000Y2455000D01*
X806899Y2455000D01*
X1413599Y3530000D02*
G01*
X1380000Y3530000D01*
X1380000Y3110000D01*
X1380000Y3000000D01*
X1305000Y2995000D01*
X1300000Y3000000D01*
X930000Y3360000D02*
G01*
X930000Y3255000D01*
X1155000Y3255000D01*
X1255000Y3355000D01*
X1255000Y3511399D01*
X1236400Y3530000D01*
X1300001Y3200000D02*
G01*
X890001Y3200000D01*
X730001Y3360000D01*
X925000Y2455000D02*
G01*
X1065219Y2595219D01*
X1195219Y2595219D01*
X1300000Y2700000D01*
D11*
X1030000Y3360000D02*
G01*
X1030000Y3430000D01*
X1030000Y2760000D02*
G01*
X1030000Y2680000D01*
X430000Y2760000D02*
G01*
X430000Y2685000D01*
X530000Y2760000D02*
G01*
X530000Y2685000D01*
X630000Y2760000D02*
G01*
X630000Y2685000D01*
X730000Y2760000D02*
G01*
X730000Y2675000D01*
X830000Y2760000D02*
G01*
X830000Y2675000D01*
X930000Y2760000D02*
G01*
X930000Y2675000D01*
X930000Y3360000D02*
G01*
X930000Y3425000D01*
X830000Y3360000D02*
G01*
X830000Y3430000D01*
X730000Y3360000D02*
G01*
X730000Y3425000D01*
X630000Y3360000D02*
G01*
X630000Y3425000D01*
X530000Y3360000D02*
G01*
X530000Y3430000D01*
X430000Y3360000D02*
G01*
X430000Y3435000D01*
D10*
X1300001Y3095000D02*
G01*
X895001Y3095000D01*
X630001Y3360000D01*
X734331Y2910000D02*
G01*
X1185001Y2910000D01*
X1300001Y2795000D01*
X1300001Y3000000D02*
G01*
X890001Y3000000D01*
X530001Y3360000D01*
X1838388Y3569971D02*
G01*
X1755668Y3569971D01*
X1750000Y3564299D01*
X1750000Y3537559D02*
G01*
X1750000Y3564299D01*
X1750000Y3482438D02*
G01*
X1750000Y3455700D01*
X1838388Y3329971D02*
G01*
X1795897Y3329971D01*
X1875000Y2840000D02*
G01*
X1875000Y2899888D01*
X1838388Y2936498D01*
X1838388Y2975048D02*
G01*
X1838388Y2936498D01*
X1838388Y3161498D02*
G01*
X1876938Y3161498D01*
X1894921Y3143521D01*
X2011611Y3143521D01*
X2011611Y3104971D02*
G01*
X2011611Y3143521D01*
X1838388Y3200048D02*
G01*
X1838388Y3161498D01*
X1965000Y2835000D02*
G01*
X1965000Y2889888D01*
X2011611Y2936498D01*
X2011611Y2955779D02*
G01*
X2011611Y2936498D01*
X2011611Y2955779D02*
G01*
X2011611Y2975048D01*
X2011611Y3013589D02*
G01*
X2054170Y3056149D01*
X2054170Y3138209D01*
X2030879Y3161498D01*
X2011611Y3161498D01*
X2011611Y2975048D02*
G01*
X2011611Y3013589D01*
X2011611Y3180779D02*
G01*
X2011611Y3161498D01*
X2011611Y3180779D02*
G01*
X2011611Y3200048D01*
X2011611Y3238589D02*
G01*
X2054170Y3281149D01*
X2054170Y3368578D01*
X2021250Y3401498D01*
X2011611Y3401498D01*
X2011611Y3200048D02*
G01*
X2011611Y3238589D01*
X2011611Y3440048D02*
G01*
X2011611Y3401498D01*
X1838388Y3401498D02*
G01*
X1876938Y3401498D01*
X1909921Y3368521D01*
X2011611Y3368521D01*
X2011611Y3329971D02*
G01*
X2011611Y3368521D01*
X1838388Y3440048D02*
G01*
X1838388Y3401498D01*
X1775000Y2845000D02*
G01*
X1770000Y2850000D01*
X1770000Y3097438D01*
X1770000Y3152561D02*
G01*
X1817597Y3104960D01*
X1838388Y3104960D01*
X1770000Y3036731D02*
G01*
X1743266Y3036731D01*
X1725000Y3055000D01*
X1725000Y3215000D01*
X1755000Y3245000D01*
X1755000Y3287438D01*
X1725000Y3215000D02*
G01*
X1725000Y3430000D01*
X1750000Y3455000D01*
X1750000Y3482438D01*
X1755000Y3342561D02*
G01*
X1767597Y3329960D01*
X1838388Y3329960D01*
D12*
G01*
X1750000Y3537559D03*
G01*
X1750000Y3482440D03*
G01*
X1755000Y3342559D03*
G01*
X1755000Y3287440D03*
G01*
X1765000Y3152559D03*
G01*
X1765000Y3097440D03*
D13*
G01*
X1838389Y2975039D03*
G01*
X1838389Y3104960D03*
G01*
X2011610Y3104960D03*
G01*
X2011610Y2975039D03*
G01*
X1838389Y3200039D03*
G01*
X1838389Y3329960D03*
G01*
X2011610Y3329960D03*
G01*
X2011610Y3200039D03*
G01*
X1838389Y3440039D03*
G01*
X1838389Y3569960D03*
G01*
X2011610Y3569960D03*
G01*
X2011610Y3440039D03*
D14*
G01*
X660000Y2910000D03*
G01*
X734329Y2910000D03*
D15*
G01*
X1043109Y2455000D03*
D16*
G01*
X925000Y2455000D03*
G01*
X806890Y2455000D03*
D17*
G01*
X1413590Y3530000D03*
G01*
X1236409Y3530000D03*
D18*
G01*
X1187209Y3430000D03*
G01*
X1462790Y3430000D03*
D19*
G01*
X430000Y2760000D03*
G01*
X930000Y3360000D03*
G01*
X830000Y3360000D03*
G01*
X730000Y3360000D03*
G01*
X630000Y3360000D03*
G01*
X530000Y3360000D03*
G01*
X430000Y3360000D03*
G01*
X1030000Y3360000D03*
G01*
X530000Y2760000D03*
G01*
X630000Y2760000D03*
G01*
X730000Y2760000D03*
G01*
X830000Y2760000D03*
G01*
X930000Y2760000D03*
G01*
X1030000Y2760000D03*
D20*
G01*
X1965000Y2845000D03*
G01*
X1300000Y3095000D03*
G01*
X1300000Y2795000D03*
G01*
X1300000Y2700000D03*
G01*
X1300000Y3200000D03*
G01*
X1875000Y2845000D03*
G01*
X1775000Y2845000D03*
G01*
X1300000Y3000000D03*
D19*
G01*
X660000Y2910000D03*
G01*
X734329Y2910000D03*
M02*
