G04 Layer: TopSilkscreenLayer*
G04 EasyEDA v6.5.44, 2024-07-16 23:05:10*
G04 d2859fdac7c24986be9c74e91a94c2b3,2d99afecd3cb4a319326ca3d9e85512b,10*
G04 Gerber Generator version 0.2*
G04 Scale: 100 percent, Rotated: No, Reflected: No *
G04 Dimensions in inches *
G04 leading zeros omitted , absolute positions ,3 integer and 6 decimal *
%FSLAX36Y36*%
%MOIN*%

%ADD10C,0.0060*%
%ADD11C,0.0048*%
%ADD12C,0.0059*%
%ADD13C,0.0100*%
%ADD14C,0.0050*%
%ADD15C,0.0164*%

%LPD*%
D10*
X1086400Y2375700D02*
G01*
X1090500Y2371599D01*
X1096599Y2369600D01*
X1104799Y2369600D01*
X1110900Y2371599D01*
X1115000Y2375700D01*
X1115000Y2379800D01*
X1113000Y2383899D01*
X1110900Y2385999D01*
X1106800Y2388000D01*
X1094499Y2392100D01*
X1090500Y2394099D01*
X1088400Y2396199D01*
X1086400Y2400300D01*
X1086400Y2406399D01*
X1090500Y2410500D01*
X1096599Y2412500D01*
X1104799Y2412500D01*
X1110900Y2410500D01*
X1115000Y2406399D01*
X1072899Y2369600D02*
G01*
X1062600Y2412500D01*
X1052399Y2369600D02*
G01*
X1062600Y2412500D01*
X1052399Y2369600D02*
G01*
X1042200Y2412500D01*
X1031999Y2369600D02*
G01*
X1042200Y2412500D01*
X1018500Y2377800D02*
G01*
X1014399Y2375700D01*
X1008199Y2369600D01*
X1008199Y2412500D01*
X1296405Y3310700D02*
G01*
X1300505Y3306599D01*
X1306604Y3304600D01*
X1314804Y3304600D01*
X1320905Y3306599D01*
X1325005Y3310700D01*
X1325005Y3314800D01*
X1323005Y3318899D01*
X1320905Y3320999D01*
X1316805Y3323000D01*
X1304504Y3327100D01*
X1300505Y3329099D01*
X1298405Y3331199D01*
X1296405Y3335300D01*
X1296405Y3341399D01*
X1300505Y3345500D01*
X1306604Y3347500D01*
X1314804Y3347500D01*
X1320905Y3345500D01*
X1325005Y3341399D01*
X1282905Y3304600D02*
G01*
X1272605Y3347500D01*
X1262404Y3304600D02*
G01*
X1272605Y3347500D01*
X1262404Y3304600D02*
G01*
X1252205Y3347500D01*
X1242004Y3304600D02*
G01*
X1252205Y3347500D01*
X1226405Y3314800D02*
G01*
X1226405Y3312800D01*
X1224404Y3308699D01*
X1222304Y3306599D01*
X1218204Y3304600D01*
X1210005Y3304600D01*
X1206004Y3306599D01*
X1203905Y3308699D01*
X1201904Y3312800D01*
X1201904Y3316900D01*
X1203905Y3320999D01*
X1208005Y3327100D01*
X1228504Y3347500D01*
X1199804Y3347500D01*
X710000Y2474600D02*
G01*
X710000Y2505300D01*
X708000Y2511399D01*
X703899Y2515500D01*
X697699Y2517500D01*
X693600Y2517500D01*
X687500Y2515500D01*
X683400Y2511399D01*
X681399Y2505300D01*
X681399Y2474600D01*
X665799Y2484800D02*
G01*
X665799Y2482800D01*
X663800Y2478699D01*
X661700Y2476599D01*
X657600Y2474600D01*
X649499Y2474600D01*
X645399Y2476599D01*
X643299Y2478699D01*
X641300Y2482800D01*
X641300Y2486900D01*
X643299Y2490999D01*
X647399Y2497100D01*
X667899Y2517500D01*
X639200Y2517500D01*
D11*
X419600Y3000000D02*
G01*
X446900Y3000000D01*
X452399Y3001799D01*
X455999Y3005500D01*
X457800Y3010900D01*
X457800Y3014499D01*
X455999Y3020000D01*
X452399Y3023600D01*
X446900Y3025500D01*
X419600Y3025500D01*
X425100Y3062899D02*
G01*
X421500Y3059299D01*
X419600Y3053800D01*
X419600Y3046500D01*
X421500Y3041100D01*
X425100Y3037500D01*
X428699Y3037500D01*
X432399Y3039299D01*
X434200Y3041100D01*
X435999Y3044699D01*
X439600Y3055599D01*
X441500Y3059299D01*
X443299Y3061100D01*
X446900Y3062899D01*
X452399Y3062899D01*
X455999Y3059299D01*
X457800Y3053800D01*
X457800Y3046500D01*
X455999Y3041100D01*
X452399Y3037500D01*
X419600Y3074899D02*
G01*
X457800Y3074899D01*
X419600Y3074899D02*
G01*
X419600Y3091300D01*
X421500Y3096700D01*
X423299Y3098499D01*
X426900Y3100399D01*
X430500Y3100399D01*
X434200Y3098499D01*
X435999Y3096700D01*
X437800Y3091300D01*
X437800Y3074899D02*
G01*
X437800Y3091300D01*
X439600Y3096700D01*
X441500Y3098499D01*
X445100Y3100399D01*
X450500Y3100399D01*
X454200Y3098499D01*
X455999Y3096700D01*
X457800Y3091300D01*
X457800Y3074899D01*
D12*
X814830Y2567836D02*
G01*
X811229Y2564236D01*
X809530Y2558836D01*
X809530Y2551736D01*
X811229Y2546336D01*
X814830Y2542736D01*
X818429Y2542736D01*
X822030Y2544535D01*
X823829Y2546336D01*
X825630Y2549935D01*
X829129Y2560635D01*
X830929Y2564236D01*
X832730Y2566035D01*
X836329Y2567836D01*
X841729Y2567836D01*
X845230Y2564236D01*
X847030Y2558836D01*
X847030Y2551736D01*
X845230Y2546336D01*
X841729Y2542736D01*
X809530Y2579636D02*
G01*
X847030Y2579636D01*
X809530Y2579636D02*
G01*
X809530Y2592136D01*
X811229Y2597536D01*
X814830Y2601136D01*
X818429Y2602836D01*
X823829Y2604636D01*
X832730Y2604636D01*
X838130Y2602836D01*
X841729Y2601136D01*
X845230Y2597536D01*
X847030Y2592136D01*
X847030Y2579636D01*
X809530Y2630835D02*
G01*
X847030Y2616435D01*
X809530Y2630835D02*
G01*
X847030Y2645136D01*
X834530Y2621835D02*
G01*
X834530Y2639735D01*
X909355Y2575635D02*
G01*
X905756Y2572136D01*
X903955Y2566736D01*
X903955Y2559535D01*
X905756Y2554236D01*
X909355Y2550635D01*
X912956Y2550635D01*
X916455Y2552435D01*
X918256Y2554236D01*
X920056Y2557736D01*
X923656Y2568535D01*
X925456Y2572136D01*
X927255Y2573935D01*
X930856Y2575635D01*
X936156Y2575635D01*
X939755Y2572136D01*
X941556Y2566736D01*
X941556Y2559535D01*
X939755Y2554236D01*
X936156Y2550635D01*
X912956Y2614335D02*
G01*
X909355Y2612536D01*
X905756Y2608935D01*
X903955Y2605435D01*
X903955Y2598236D01*
X905756Y2594636D01*
X909355Y2591035D01*
X912956Y2589236D01*
X918256Y2587536D01*
X927255Y2587536D01*
X932655Y2589236D01*
X936156Y2591035D01*
X939755Y2594636D01*
X941556Y2598236D01*
X941556Y2605435D01*
X939755Y2608935D01*
X936156Y2612536D01*
X932655Y2614335D01*
X903955Y2626136D02*
G01*
X941556Y2626136D01*
X941556Y2626136D02*
G01*
X941556Y2647636D01*
X1010272Y2592523D02*
G01*
X1047853Y2592523D01*
X1010272Y2579996D02*
G01*
X1010272Y2605050D01*
X1010272Y2616862D02*
G01*
X1047853Y2641914D01*
X1010272Y2641914D02*
G01*
X1047853Y2616862D01*
X703193Y2586042D02*
G01*
X740792Y2586042D01*
X703193Y2586042D02*
G01*
X703193Y2598542D01*
X704992Y2603942D01*
X708593Y2607543D01*
X712092Y2609342D01*
X717492Y2611143D01*
X726493Y2611143D01*
X731792Y2609342D01*
X735392Y2607543D01*
X738993Y2603942D01*
X740792Y2598542D01*
X740792Y2586042D01*
X703193Y2626543D02*
G01*
X703193Y2646143D01*
X717492Y2635443D01*
X717492Y2640843D01*
X719292Y2644443D01*
X721093Y2646143D01*
X726493Y2647943D01*
X729992Y2647943D01*
X735392Y2646143D01*
X738993Y2642642D01*
X740792Y2637242D01*
X740792Y2631842D01*
X738993Y2626543D01*
X737193Y2624742D01*
X733593Y2622943D01*
X608699Y2586060D02*
G01*
X646280Y2586060D01*
X608699Y2586060D02*
G01*
X608699Y2598587D01*
X610488Y2603955D01*
X614068Y2607534D01*
X617647Y2609324D01*
X623015Y2611113D01*
X631963Y2611113D01*
X637332Y2609324D01*
X640911Y2607534D01*
X644490Y2603955D01*
X646280Y2598587D01*
X646280Y2586060D01*
X617647Y2624713D02*
G01*
X615857Y2624713D01*
X612278Y2626504D01*
X610488Y2628292D01*
X608699Y2631871D01*
X608699Y2639031D01*
X610488Y2642609D01*
X612278Y2644398D01*
X615857Y2646188D01*
X619436Y2646188D01*
X623015Y2644398D01*
X628384Y2640819D01*
X646280Y2622925D01*
X646280Y2647977D01*
X407912Y2586060D02*
G01*
X445493Y2586060D01*
X407912Y2586060D02*
G01*
X407912Y2598587D01*
X409702Y2603955D01*
X413281Y2607534D01*
X416860Y2609324D01*
X422228Y2611113D01*
X431176Y2611113D01*
X436545Y2609324D01*
X440124Y2607534D01*
X443703Y2603955D01*
X445493Y2598587D01*
X445493Y2586060D01*
X407912Y2633661D02*
G01*
X409702Y2628292D01*
X415070Y2624713D01*
X424018Y2622925D01*
X429387Y2622925D01*
X438333Y2624713D01*
X443703Y2628292D01*
X445493Y2633661D01*
X445493Y2637240D01*
X443703Y2642609D01*
X438333Y2646188D01*
X429387Y2647977D01*
X424018Y2647977D01*
X415070Y2646188D01*
X409702Y2642609D01*
X407912Y2637240D01*
X407912Y2633661D01*
X506345Y2586091D02*
G01*
X543944Y2586091D01*
X506345Y2586091D02*
G01*
X506345Y2598591D01*
X508144Y2603991D01*
X511745Y2607492D01*
X515244Y2609292D01*
X520644Y2611091D01*
X529645Y2611091D01*
X534944Y2609292D01*
X538544Y2607492D01*
X542145Y2603991D01*
X543944Y2598591D01*
X543944Y2586091D01*
X513544Y2622892D02*
G01*
X511745Y2626491D01*
X506345Y2631891D01*
X543944Y2631891D01*
X810299Y3470000D02*
G01*
X847899Y3470000D01*
X810299Y3470000D02*
G01*
X847899Y3484299D01*
X810299Y3498600D02*
G01*
X847899Y3484299D01*
X810299Y3498600D02*
G01*
X847899Y3498600D01*
X810299Y3510399D02*
G01*
X847899Y3510399D01*
X815600Y3547300D02*
G01*
X812100Y3543699D01*
X810299Y3538400D01*
X810299Y3531199D01*
X812100Y3525799D01*
X815600Y3522300D01*
X819200Y3522300D01*
X822799Y3524000D01*
X824600Y3525799D01*
X826400Y3529400D01*
X830000Y3540200D01*
X831700Y3543699D01*
X833500Y3545500D01*
X837100Y3547300D01*
X842500Y3547300D01*
X846099Y3543699D01*
X847899Y3538400D01*
X847899Y3531199D01*
X846099Y3525799D01*
X842500Y3522300D01*
X810299Y3569899D02*
G01*
X812100Y3566300D01*
X815600Y3562700D01*
X819200Y3560900D01*
X824600Y3559099D01*
X833500Y3559099D01*
X838900Y3560900D01*
X842500Y3562700D01*
X846099Y3566300D01*
X847899Y3569899D01*
X847899Y3576999D01*
X846099Y3580599D01*
X842500Y3584200D01*
X838900Y3585999D01*
X833500Y3587800D01*
X824600Y3587800D01*
X819200Y3585999D01*
X815600Y3584200D01*
X812100Y3580599D01*
X810299Y3576999D01*
X810299Y3569899D01*
X915600Y3495100D02*
G01*
X912100Y3491500D01*
X910299Y3486100D01*
X910299Y3478899D01*
X912100Y3473600D01*
X915600Y3470000D01*
X919200Y3470000D01*
X922799Y3471799D01*
X924600Y3473600D01*
X926400Y3477199D01*
X930000Y3487899D01*
X931700Y3491500D01*
X933500Y3493299D01*
X937100Y3495100D01*
X942500Y3495100D01*
X946099Y3491500D01*
X947899Y3486100D01*
X947899Y3478899D01*
X946099Y3473600D01*
X942500Y3470000D01*
X919200Y3533699D02*
G01*
X915600Y3531900D01*
X912100Y3528299D01*
X910299Y3524800D01*
X910299Y3517600D01*
X912100Y3514000D01*
X915600Y3510399D01*
X919200Y3508699D01*
X924600Y3506900D01*
X933500Y3506900D01*
X938900Y3508699D01*
X942500Y3510399D01*
X946099Y3514000D01*
X947899Y3517600D01*
X947899Y3524800D01*
X946099Y3528299D01*
X942500Y3531900D01*
X938900Y3533699D01*
X910299Y3545500D02*
G01*
X947899Y3545500D01*
X910299Y3570599D02*
G01*
X935299Y3545500D01*
X926400Y3554499D02*
G01*
X947899Y3570599D01*
X1010299Y3470000D02*
G01*
X1047899Y3470000D01*
X1010299Y3470000D02*
G01*
X1010299Y3486100D01*
X1012100Y3491500D01*
X1013900Y3493299D01*
X1017399Y3495100D01*
X1021000Y3495100D01*
X1024600Y3493299D01*
X1026400Y3491500D01*
X1028199Y3486100D01*
X1028199Y3470000D01*
X1028199Y3482500D02*
G01*
X1047899Y3495100D01*
X1010299Y3506900D02*
G01*
X1047899Y3531900D01*
X1010299Y3531900D02*
G01*
X1047899Y3506900D01*
X710300Y3470000D02*
G01*
X747899Y3470000D01*
X710300Y3470000D02*
G01*
X747899Y3484299D01*
X710300Y3498600D02*
G01*
X747899Y3484299D01*
X710300Y3498600D02*
G01*
X747899Y3498600D01*
X710300Y3521199D02*
G01*
X712100Y3517600D01*
X715599Y3514000D01*
X719200Y3512199D01*
X724600Y3510399D01*
X733499Y3510399D01*
X738899Y3512199D01*
X742500Y3514000D01*
X746100Y3517600D01*
X747899Y3521199D01*
X747899Y3528299D01*
X746100Y3531900D01*
X742500Y3535500D01*
X738899Y3537300D01*
X733499Y3539099D01*
X724600Y3539099D01*
X719200Y3537300D01*
X715599Y3535500D01*
X712100Y3531900D01*
X710300Y3528299D01*
X710300Y3521199D01*
X715599Y3575900D02*
G01*
X712100Y3572399D01*
X710300Y3566999D01*
X710300Y3559800D01*
X712100Y3554499D01*
X715599Y3550900D01*
X719200Y3550900D01*
X722800Y3552700D01*
X724600Y3554499D01*
X726399Y3558000D01*
X730000Y3568800D01*
X731700Y3572399D01*
X733499Y3574200D01*
X737100Y3575900D01*
X742500Y3575900D01*
X746100Y3572399D01*
X747899Y3566999D01*
X747899Y3559800D01*
X746100Y3554499D01*
X742500Y3550900D01*
X710300Y3587800D02*
G01*
X747899Y3587800D01*
X610300Y3473600D02*
G01*
X610300Y3493299D01*
X624600Y3482500D01*
X624600Y3487899D01*
X626399Y3491500D01*
X628200Y3493299D01*
X633499Y3495100D01*
X637100Y3495100D01*
X642500Y3493299D01*
X646100Y3489699D01*
X647899Y3484299D01*
X647899Y3478899D01*
X646100Y3473600D01*
X644299Y3471799D01*
X640700Y3470000D01*
X610300Y3506900D02*
G01*
X647899Y3521199D01*
X610300Y3535500D02*
G01*
X647899Y3521199D01*
X610300Y3550900D02*
G01*
X610300Y3570599D01*
X624600Y3559800D01*
X624600Y3565200D01*
X626399Y3568800D01*
X628200Y3570599D01*
X633499Y3572399D01*
X637100Y3572399D01*
X642500Y3570599D01*
X646100Y3566999D01*
X647899Y3561599D01*
X647899Y3556300D01*
X646100Y3550900D01*
X644299Y3549099D01*
X640700Y3547300D01*
X410300Y3491500D02*
G01*
X410300Y3473600D01*
X426399Y3471799D01*
X424600Y3473600D01*
X422800Y3478899D01*
X422800Y3484299D01*
X424600Y3489699D01*
X428200Y3493299D01*
X433499Y3495100D01*
X437100Y3495100D01*
X442500Y3493299D01*
X446100Y3489699D01*
X447899Y3484299D01*
X447899Y3478899D01*
X446100Y3473600D01*
X444299Y3471799D01*
X440700Y3470000D01*
X410300Y3506900D02*
G01*
X447899Y3521199D01*
X410300Y3535500D02*
G01*
X447899Y3521199D01*
X519200Y3496799D02*
G01*
X515599Y3495100D01*
X512100Y3491500D01*
X510300Y3487899D01*
X510300Y3480700D01*
X512100Y3477199D01*
X515599Y3473600D01*
X519200Y3471799D01*
X524600Y3470000D01*
X533499Y3470000D01*
X538899Y3471799D01*
X542500Y3473600D01*
X546100Y3477199D01*
X547899Y3480700D01*
X547899Y3487899D01*
X546100Y3491500D01*
X542500Y3495100D01*
X538899Y3496799D01*
X533499Y3496799D01*
X533499Y3487899D02*
G01*
X533499Y3496799D01*
X510300Y3508699D02*
G01*
X547899Y3508699D01*
X510300Y3508699D02*
G01*
X547899Y3533699D01*
X510300Y3533699D02*
G01*
X547899Y3533699D01*
X510300Y3545500D02*
G01*
X547899Y3545500D01*
X510300Y3545500D02*
G01*
X510300Y3558000D01*
X512100Y3563400D01*
X515599Y3566999D01*
X519200Y3568800D01*
X524600Y3570599D01*
X533499Y3570599D01*
X538899Y3568800D01*
X542500Y3566999D01*
X546100Y3563400D01*
X547899Y3558000D01*
X547899Y3545500D01*
X638220Y2985050D02*
G01*
X668319Y2985050D01*
X638220Y2985050D02*
G01*
X638220Y2997849D01*
X639619Y3002150D01*
X641120Y3003649D01*
X643919Y3005050D01*
X646819Y3005050D01*
X649720Y3003649D01*
X651120Y3002150D01*
X652519Y2997849D01*
X652519Y2985050D02*
G01*
X652519Y2997849D01*
X653919Y3002150D01*
X655419Y3003649D01*
X658220Y3005050D01*
X662519Y3005050D01*
X665419Y3003649D01*
X666819Y3002150D01*
X668319Y2997849D01*
X668319Y2985050D01*
X638220Y3025949D02*
G01*
X668319Y3014450D01*
X638220Y3025949D02*
G01*
X668319Y3037350D01*
X658220Y3018750D02*
G01*
X658220Y3033150D01*
X638220Y3056849D02*
G01*
X668319Y3056849D01*
X638220Y3046849D02*
G01*
X638220Y3066849D01*
X655419Y3076350D02*
G01*
X655419Y3102150D01*
X718229Y2990050D02*
G01*
X748330Y2990050D01*
X718229Y2990050D02*
G01*
X718229Y3002849D01*
X719630Y3007150D01*
X721129Y3008649D01*
X723930Y3010050D01*
X726829Y3010050D01*
X729630Y3008649D01*
X731129Y3007150D01*
X732530Y3002849D01*
X732530Y2990050D02*
G01*
X732530Y3002849D01*
X733930Y3007150D01*
X735430Y3008649D01*
X738229Y3010050D01*
X742530Y3010050D01*
X745430Y3008649D01*
X746829Y3007150D01*
X748330Y3002849D01*
X748330Y2990050D01*
X718229Y3030949D02*
G01*
X748330Y3019450D01*
X718229Y3030949D02*
G01*
X748330Y3042350D01*
X738229Y3023750D02*
G01*
X738229Y3038150D01*
X718229Y3061849D02*
G01*
X748330Y3061849D01*
X718229Y3051849D02*
G01*
X718229Y3071849D01*
X722530Y3094250D02*
G01*
X748330Y3094250D01*
X735430Y3081350D02*
G01*
X735430Y3107150D01*
D10*
X1950000Y2940399D02*
G01*
X1966400Y2897500D01*
X1982700Y2940399D02*
G01*
X1966400Y2897500D01*
X1350000Y3120399D02*
G01*
X1366400Y3077500D01*
X1382700Y3120399D02*
G01*
X1366400Y3077500D01*
X1396199Y3063099D02*
G01*
X1433000Y3063099D01*
X1458800Y3120399D02*
G01*
X1454700Y3118400D01*
X1450600Y3114299D01*
X1448599Y3110200D01*
X1446499Y3104000D01*
X1446499Y3093800D01*
X1448599Y3087700D01*
X1450600Y3083600D01*
X1454700Y3079499D01*
X1458800Y3077500D01*
X1466999Y3077500D01*
X1471099Y3079499D01*
X1475200Y3083600D01*
X1477200Y3087700D01*
X1479300Y3093800D01*
X1479300Y3104000D01*
X1477200Y3110200D01*
X1475200Y3114299D01*
X1471099Y3118400D01*
X1466999Y3120399D01*
X1458800Y3120399D01*
X1492799Y3120399D02*
G01*
X1492799Y3089699D01*
X1494799Y3083600D01*
X1498900Y3079499D01*
X1505000Y3077500D01*
X1509099Y3077500D01*
X1515299Y3079499D01*
X1519399Y3083600D01*
X1521400Y3089699D01*
X1521400Y3120399D01*
X1549200Y3120399D02*
G01*
X1549200Y3077500D01*
X1534899Y3120399D02*
G01*
X1563500Y3120399D01*
X1355000Y2820399D02*
G01*
X1355000Y2777500D01*
X1355000Y2820399D02*
G01*
X1373400Y2820399D01*
X1379499Y2818400D01*
X1381599Y2816300D01*
X1383599Y2812199D01*
X1383599Y2808099D01*
X1381599Y2804000D01*
X1379499Y2801999D01*
X1373400Y2800000D01*
X1355000Y2800000D02*
G01*
X1373400Y2800000D01*
X1379499Y2797899D01*
X1381599Y2795900D01*
X1383599Y2791799D01*
X1383599Y2785599D01*
X1381599Y2781500D01*
X1379499Y2779499D01*
X1373400Y2777500D01*
X1355000Y2777500D01*
X1415500Y2814299D02*
G01*
X1415500Y2777500D01*
X1397100Y2795900D02*
G01*
X1433999Y2795900D01*
X1360000Y2720399D02*
G01*
X1360000Y2677500D01*
X1360000Y2720399D02*
G01*
X1378400Y2720399D01*
X1384499Y2718400D01*
X1386599Y2716300D01*
X1388599Y2712199D01*
X1388599Y2708099D01*
X1386599Y2704000D01*
X1384499Y2701999D01*
X1378400Y2700000D01*
X1360000Y2700000D02*
G01*
X1378400Y2700000D01*
X1384499Y2697899D01*
X1386599Y2695900D01*
X1388599Y2691799D01*
X1388599Y2685599D01*
X1386599Y2681500D01*
X1384499Y2679499D01*
X1378400Y2677500D01*
X1360000Y2677500D01*
X1402100Y2695900D02*
G01*
X1438999Y2695900D01*
X1355000Y3230399D02*
G01*
X1355000Y3187500D01*
X1355000Y3230399D02*
G01*
X1369300Y3230399D01*
X1375500Y3228400D01*
X1379499Y3224299D01*
X1381599Y3220200D01*
X1383599Y3214000D01*
X1383599Y3203800D01*
X1381599Y3197700D01*
X1379499Y3193600D01*
X1375500Y3189499D01*
X1369300Y3187500D01*
X1355000Y3187500D01*
X1397100Y3173099D02*
G01*
X1433999Y3173099D01*
X1459700Y3230399D02*
G01*
X1455600Y3228400D01*
X1451499Y3224299D01*
X1449499Y3220200D01*
X1447500Y3214000D01*
X1447500Y3203800D01*
X1449499Y3197700D01*
X1451499Y3193600D01*
X1455600Y3189499D01*
X1459700Y3187500D01*
X1467899Y3187500D01*
X1471999Y3189499D01*
X1476099Y3193600D01*
X1478100Y3197700D01*
X1480200Y3203800D01*
X1480200Y3214000D01*
X1478100Y3220200D01*
X1476099Y3224299D01*
X1471999Y3228400D01*
X1467899Y3230399D01*
X1459700Y3230399D01*
X1493699Y3230399D02*
G01*
X1493699Y3199699D01*
X1495699Y3193600D01*
X1499799Y3189499D01*
X1506000Y3187500D01*
X1510000Y3187500D01*
X1516199Y3189499D01*
X1520299Y3193600D01*
X1522299Y3199699D01*
X1522299Y3230399D01*
X1550100Y3230399D02*
G01*
X1550100Y3187500D01*
X1535799Y3230399D02*
G01*
X1564499Y3230399D01*
X1865000Y2940399D02*
G01*
X1865000Y2897500D01*
X1865000Y2940399D02*
G01*
X1879300Y2940399D01*
X1885500Y2938400D01*
X1889499Y2934299D01*
X1891599Y2930200D01*
X1893599Y2924000D01*
X1893599Y2913800D01*
X1891599Y2907700D01*
X1889499Y2903600D01*
X1885500Y2899499D01*
X1879300Y2897500D01*
X1865000Y2897500D01*
X1790699Y2930200D02*
G01*
X1788599Y2934299D01*
X1784499Y2938400D01*
X1780500Y2940399D01*
X1772299Y2940399D01*
X1768199Y2938400D01*
X1764099Y2934299D01*
X1761999Y2930200D01*
X1760000Y2924000D01*
X1760000Y2913800D01*
X1761999Y2907700D01*
X1764099Y2903600D01*
X1768199Y2899499D01*
X1772299Y2897500D01*
X1780500Y2897500D01*
X1784499Y2899499D01*
X1788599Y2903600D01*
X1790699Y2907700D01*
X1790699Y2913800D01*
X1780500Y2913800D02*
G01*
X1790699Y2913800D01*
X1380699Y3010200D02*
G01*
X1378599Y3014299D01*
X1374499Y3018400D01*
X1370500Y3020399D01*
X1362299Y3020399D01*
X1358199Y3018400D01*
X1354099Y3014299D01*
X1351999Y3010200D01*
X1350000Y3004000D01*
X1350000Y2993800D01*
X1351999Y2987700D01*
X1354099Y2983600D01*
X1358199Y2979499D01*
X1362299Y2977500D01*
X1370500Y2977500D01*
X1374499Y2979499D01*
X1378599Y2983600D01*
X1380699Y2987700D01*
X1380699Y2993800D01*
X1370500Y2993800D02*
G01*
X1380699Y2993800D01*
X1394200Y2963099D02*
G01*
X1431000Y2963099D01*
X1456800Y3020399D02*
G01*
X1452700Y3018400D01*
X1448599Y3014299D01*
X1446499Y3010200D01*
X1444499Y3004000D01*
X1444499Y2993800D01*
X1446499Y2987700D01*
X1448599Y2983600D01*
X1452700Y2979499D01*
X1456800Y2977500D01*
X1465000Y2977500D01*
X1468999Y2979499D01*
X1473100Y2983600D01*
X1475200Y2987700D01*
X1477200Y2993800D01*
X1477200Y3004000D01*
X1475200Y3010200D01*
X1473100Y3014299D01*
X1468999Y3018400D01*
X1465000Y3020399D01*
X1456800Y3020399D01*
X1490699Y3020399D02*
G01*
X1490699Y2989699D01*
X1492799Y2983600D01*
X1496899Y2979499D01*
X1503000Y2977500D01*
X1507100Y2977500D01*
X1513199Y2979499D01*
X1517299Y2983600D01*
X1519399Y2989699D01*
X1519399Y3020399D01*
X1547200Y3020399D02*
G01*
X1547200Y2977500D01*
X1532899Y3020399D02*
G01*
X1561499Y3020399D01*
G36*
X1793500Y3150000D02*
G01*
X1793500Y3121500D01*
X1820000Y3150000D01*
G37*
G36*
X1793500Y3375000D02*
G01*
X1793500Y3346500D01*
X1820000Y3375000D01*
G37*
G36*
X1793500Y3615000D02*
G01*
X1793500Y3586500D01*
X1820000Y3615000D01*
G37*
D13*
X1734260Y3564724D02*
G01*
X1765757Y3564724D01*
X1722061Y3521033D02*
G01*
X1722061Y3552528D01*
X1777953Y3521033D02*
G01*
X1777953Y3552528D01*
X1721832Y3498361D02*
G01*
X1721832Y3466864D01*
X1734031Y3454666D02*
G01*
X1765525Y3454666D01*
X1777722Y3498361D02*
G01*
X1777722Y3466864D01*
X1739260Y3369724D02*
G01*
X1770757Y3369724D01*
X1727061Y3326033D02*
G01*
X1727061Y3357528D01*
X1782953Y3326033D02*
G01*
X1782953Y3357528D01*
X1726832Y3303361D02*
G01*
X1726832Y3271864D01*
X1739031Y3259666D02*
G01*
X1770525Y3259666D01*
X1782722Y3303361D02*
G01*
X1782722Y3271864D01*
X1749260Y3179724D02*
G01*
X1780757Y3179724D01*
X1737061Y3136033D02*
G01*
X1737061Y3167528D01*
X1792953Y3136033D02*
G01*
X1792953Y3167528D01*
X1736832Y3113361D02*
G01*
X1736832Y3081864D01*
X1749031Y3069666D02*
G01*
X1780525Y3069666D01*
X1792722Y3113361D02*
G01*
X1792722Y3081864D01*
X2021455Y3011698D02*
G01*
X2021455Y3068301D01*
X1878074Y2943544D02*
G01*
X1971925Y2943544D01*
X1828542Y3068301D02*
G01*
X1828542Y3011698D01*
X1878074Y3136457D02*
G01*
X1971925Y3136457D01*
X1790001Y3105001D02*
G01*
X1740001Y3105001D01*
X2085001Y2945001D02*
G01*
X2085001Y2995001D01*
X2110001Y2970001D02*
G01*
X2060001Y2970001D01*
X2021455Y3236698D02*
G01*
X2021455Y3293301D01*
X1878074Y3168544D02*
G01*
X1971925Y3168544D01*
X1828542Y3293301D02*
G01*
X1828542Y3236698D01*
X1878074Y3361457D02*
G01*
X1971925Y3361457D01*
X1790001Y3330001D02*
G01*
X1740001Y3330001D01*
X2085001Y3170001D02*
G01*
X2085001Y3220001D01*
X2110001Y3195001D02*
G01*
X2060001Y3195001D01*
X2021455Y3476698D02*
G01*
X2021455Y3533301D01*
X1878074Y3408544D02*
G01*
X1971925Y3408544D01*
X1828542Y3533301D02*
G01*
X1828542Y3476698D01*
X1878074Y3601457D02*
G01*
X1971925Y3601457D01*
X1790001Y3570001D02*
G01*
X1740001Y3570001D01*
X2085001Y3410001D02*
G01*
X2085001Y3460001D01*
X2110001Y3435001D02*
G01*
X2060001Y3435001D01*
X960153Y2423710D02*
G01*
X960153Y2397914D01*
X960153Y2504212D02*
G01*
X960153Y2486289D01*
X980118Y2468968D02*
G01*
X980118Y2502244D01*
X806890Y2422278D02*
G01*
X806890Y2397914D01*
X980118Y2397914D01*
X980118Y2441032D01*
X982085Y2504212D02*
G01*
X806890Y2504212D01*
X806890Y2487721D01*
X1130012Y2542694D02*
G01*
X1308865Y2542694D01*
X1308865Y2362462D01*
X1130012Y2362462D01*
X720000Y2367289D02*
G01*
X541141Y2367289D01*
X541141Y2547519D01*
X720000Y2547519D01*
X720000Y2345000D02*
G01*
X720000Y2565000D01*
X720000Y2345000D02*
G01*
X1130000Y2345000D01*
X1130000Y2565000D01*
X720000Y2565000D01*
X1466730Y3372519D02*
G01*
X1183267Y3372519D01*
X1183305Y3632399D02*
G01*
X1466705Y3632399D01*
X1384059Y3760315D02*
G01*
X1265950Y3760315D01*
X1265950Y3760315D02*
G01*
X1265950Y3632361D01*
X1384059Y3760315D02*
G01*
X1384059Y3632361D01*
X1466730Y3372519D02*
G01*
X1466730Y3377741D01*
X1466730Y3482258D02*
G01*
X1466730Y3632399D01*
X1183267Y3372519D02*
G01*
X1183267Y3377741D01*
X1183267Y3482258D02*
G01*
X1183267Y3632399D01*
D14*
X380000Y2710000D02*
G01*
X380000Y2810000D01*
X1080000Y2810000D01*
X1080000Y2710000D01*
X380000Y2710000D01*
D13*
X316930Y3330000D02*
G01*
X316930Y2790000D01*
X1147700Y2790000D02*
G01*
X1147700Y3330000D01*
X396930Y2710000D02*
G01*
X1063699Y2710000D01*
X1063699Y3410000D02*
G01*
X396930Y3410000D01*
D14*
X1080000Y3410000D02*
G01*
X1080000Y3310000D01*
X380000Y3310000D01*
X380000Y3410000D01*
X1080000Y3410000D01*
D13*
X550000Y2880000D02*
G01*
X260000Y2880000D01*
X260000Y3238769D01*
X550000Y3238769D01*
X550000Y2880000D01*
G75*
G01*
X1734031Y3454665D02*
G02*
X1721833Y3466863I0J12198D01*
G75*
G01*
X1777725Y3466863D02*
G02*
X1765526Y3454665I-12198J0D01*
G75*
G01*
X1722062Y3552527D02*
G02*
X1734261Y3564725I12198J0D01*
G75*
G01*
X1765756Y3564725D02*
G02*
X1777954Y3552527I0J-12198D01*
G75*
G01*
X1739031Y3259665D02*
G02*
X1726833Y3271863I0J12198D01*
G75*
G01*
X1782725Y3271863D02*
G02*
X1770526Y3259665I-12198J0D01*
G75*
G01*
X1727062Y3357527D02*
G02*
X1739261Y3369725I12198J0D01*
G75*
G01*
X1770756Y3369725D02*
G02*
X1782954Y3357527I0J-12198D01*
G75*
G01*
X1749031Y3069665D02*
G02*
X1736833Y3081863I0J12198D01*
G75*
G01*
X1792725Y3081863D02*
G02*
X1780526Y3069665I-12198J0D01*
G75*
G01*
X1737062Y3167527D02*
G02*
X1749261Y3179725I12198J0D01*
G75*
G01*
X1780756Y3179725D02*
G02*
X1792954Y3167527I0J-12198D01*
G75*
G01*
X396930Y3410000D02*
G03*
X316930Y3330000I0J-80000D01*
G75*
G01*
X316930Y2790000D02*
G03*
X396930Y2710000I80000J0D01*
G75*
G01*
X1147700Y3330000D02*
G03*
X1063700Y3410000I-81996J-1996D01*
G75*
G01*
X1063700Y2710000D02*
G03*
X1147700Y2790000I2004J81996D01*
G75*
G01
X673030Y2455000D02*
G03X673030Y2455000I-43310J0D01*
G75*
G01
X1263590Y2455000D02*
G03X1263590Y2455000I-43310J0D01*
M02*
